<?xml version="1.0" encoding="utf-8"?>
<!-- Generator: Adobe Illustrator 19.2.1, SVG Export Plug-In . SVG Version: 6.00 Build 0)  -->
<svg version="1.1" id="layer" xmlns="http://www.w3.org/2000/svg" xmlns:xlink="http://www.w3.org/1999/xlink" x="0px" y="0px"
	 viewBox="0 0 652 652" style="enable-background:new 0 0 652 652;" xml:space="preserve">
<style type="text/css">
	.st0{fill:#3F444B;}
	.st1{fill:#0A6AAA;}
</style>
<g>
	<path class="st0" d="M119.5,421.5h4.7v-37.2h-4.1v-1.9h32.6l0.1,10.8h-2c-2.6-7-4.8-8.9-10-8.9h-6.7v16.9c0.4,0.1,0.9,0.1,1.3,0.1
		c4.2,0,6.3-2.2,7-7.5h2v17.5h-2c-0.4-5.7-2.5-8-7.2-8c-0.4,0-0.7,0.1-1.1,0.1v18.2h6.5c6.5,0,9.8-3.4,11.8-11.7h1.9l-0.4,13.7
		h-34.4V421.5z"/>
	<path class="st0" d="M186.1,421.5h3.8v1.9c-4,0-8,0.2-12.1,0.5v-6.3c-2.3,4.4-5.2,6.5-9.6,6.5c-2.7,0-4.7-0.8-5.9-2.4
		c-0.8-1.2-1-2.7-1-4.8v-2.7v-13.6h-3.9v-1.9c4.4-0.1,8.4-0.3,12-0.6V418c0,2.3,0.7,3.4,2.5,3.4c2.8,0,5.8-4.2,5.8-9v-11.7h-4.3
		v-1.9c4.1,0,8.3-0.3,12.6-0.6V421.5z"/>
	<path class="st0" d="M192.2,421.6h3.2v-20.9h-3.2v-1.9c3.8-0.1,7.6-0.4,11.4-0.8v6.8c1.6-4.3,4.4-6.6,7.3-6.6c3,0,5.2,2.2,5.2,5.1
		c0,2.6-1.7,4.5-4.3,4.5c-2.1,0-3.8-1.8-3.8-4.2c0-1.2,0.7-1.7,0.7-2.3c0-0.2-0.2-0.4-0.5-0.4c-1.4,0-4.5,4.4-4.5,9.5v11.2h4.3v1.9
		h-15.8V421.6z"/>
	<path class="st0" d="M232.3,398.1c8.4,0,14.1,5.5,14.1,13c0,7.5-5.6,13.1-14.1,13.1c-8.4,0-14-5.5-14-13
		C218.3,403.7,223.9,398.1,232.3,398.1 M227.6,411.1v2.5c0,6.4,0.3,9,4.7,9c4.4,0,4.7-2.8,4.7-10.6v-3.7c0-6.1-0.4-8.8-4.7-8.8
		C227.8,399.6,227.6,402.8,227.6,411.1"/>
	<path class="st0" d="M248.7,435.5h3.4v-34.7h-3.9v-1.9c4.3-0.1,8.4-0.4,12.2-0.8v4.7c1.8-3.2,4.3-4.7,7.7-4.7
		c6.3,0,11.1,5.5,11.1,13.1c0,7.4-4.8,13-11.1,13c-3.4,0-5.9-1.5-7.7-4.7v15.9h4.3v1.9h-16V435.5z M269.9,404.7c0-3.3-0.3-4.8-3-4.8
		c-3.8,0-6.6,3.3-6.6,8.9v4.7c0,5.6,2.7,8.9,6.6,8.9c2.6,0,3-1.6,3-4.7V404.7z"/>
	<path class="st0" d="M308.8,415.7c-2,5.8-5.8,8.5-11.8,8.5c-8.4,0-13.7-5.1-13.7-12.8c0-7.5,5.6-13.3,13.6-13.3
		c7.2,0,11.7,4.5,11.7,11.7v0.3h-15.7v6.2c0,4.4,1,6.3,4.8,6.3c4.8,0,8.1-2.5,9.8-7.5L308.8,415.7z M300.7,408.2v-4.8
		c0-2.7-1.2-3.8-4-3.8c-2.6,0-4,1.2-4,3.8v4.8H300.7z"/>
	<path class="st0" d="M318.6,424.1c-4.1,0-6.3-2.3-6.3-6.2c0-5.1,5.4-8.8,15.1-8.8v-6c0-2.6-0.7-3.4-4-3.4c-2,0-3.1,0.5-3.1,1.5
		c0,0.6,1.1,1.5,1.1,3.3c0,2.4-1.4,3.7-4,3.7c-2.3,0-3.5-1.4-3.5-3.9c0-3.9,3.9-6.3,11.1-6.3c3.4,0,5.9,0.6,7.4,1.4
		c2.3,1.3,2.5,2.8,2.5,5.8V418c0,1.5,0.5,2.2,1.9,2.2c0.8,0,1.1-0.6,1.5-0.6c0.4,0,0.6,0.3,0.6,0.6c0,1.1-2.1,3.9-5.6,3.9
		c-2.6,0-4.7-1.6-5.5-4.3C325.2,422.9,322.5,424.1,318.6,424.1 M326.8,410.9c-4.7,0-6.6,1.2-6.6,4.8c0,3.5,0.9,5,3.3,5
		c2.3,0,4-1.7,4-4.5v-5.3H326.8z"/>
	<path class="st0" d="M343.6,421.6v-21h-4v-2c3.9,0,7.9-0.1,12.2-0.4v6.3c2.3-4.4,5.2-6.3,9.5-6.3c6.3,0,6.9,3,6.9,9v14.5h3.5v1.9
		h-14.7v-1.9h3.1v-17.4c0-2.3-0.7-3.3-2.5-3.3c-2.8,0-5.8,4.1-5.8,9v11.8h3v1.9H340v-1.9H343.6z"/>
	<path class="st0" d="M396.7,421.5v-37.2h-4.2v-1.9h21.8c8.4,0,13.2,4,13.2,9.8c0,5-3.8,8.1-11.2,9.2v0.5
		c8.5,0.8,12.7,4.2,12.7,10.2c0,6.9-5.8,11.3-15.1,11.3h-21.4v-2H396.7z M410.2,400.9c5.9,0,7-1.6,7-8.3c0-7.5-0.6-8.3-7.3-8.3h-3.4
		v16.6H410.2z M411.7,421.5c5.7,0,6.5-1.8,6.5-9.4c0-7.5-1.4-9.4-7.4-9.4h-4.4v18.8H411.7z"/>
	<path class="st0" d="M438.2,424.1c-4.1,0-6.3-2.3-6.3-6.2c0-5.1,5.4-8.8,15.1-8.8v-6c0-2.6-0.7-3.4-4-3.4c-2,0-3.1,0.5-3.1,1.5
		c0,0.6,1.1,1.5,1.1,3.3c0,2.4-1.4,3.7-4,3.7c-2.3,0-3.5-1.4-3.5-3.9c0-3.9,3.9-6.3,11.1-6.3c3.4,0,5.9,0.6,7.4,1.4
		c2.3,1.3,2.5,2.8,2.5,5.8V418c0,1.5,0.5,2.2,1.9,2.2c0.8,0,1.1-0.6,1.5-0.6c0.4,0,0.6,0.3,0.6,0.6c0,1.1-2.1,3.9-5.6,3.9
		c-2.6,0-4.7-1.6-5.5-4.3C444.8,422.9,442.1,424.1,438.2,424.1 M446.3,410.9c-4.7,0-6.5,1.2-6.5,4.8c0,3.5,0.9,5,3.3,5
		c2.3,0,4-1.7,4-4.5v-5.3H446.3z"/>
	<path class="st0" d="M463.4,421.6v-21h-4v-2c3.9,0,7.9-0.1,12.2-0.4v6.3c2.3-4.4,5.2-6.3,9.6-6.3c6.3,0,6.9,3,6.9,9v14.5h3.5v1.9
		h-14.7v-1.9h3.1v-17.4c0-2.3-0.7-3.3-2.5-3.3c-2.8,0-5.8,4.1-5.8,9v11.8h3v1.9h-14.9v-1.9H463.4z"/>
	<path class="st0" d="M496.5,421.6v-37.3h-2.9v-1.9c3.2-0.1,6.9-0.4,11.1-0.8v39.9h3.8v1.9h-14.9v-1.9H496.5z M515.4,400.7h-5.6
		v-1.9h12.6v1.9h-4.4l-6.2,5.4l11.5,15.6h2.5v1.9h-15.2v-1.9h3l-8.5-11.7L515.4,400.7z"/>
	<path class="st0" d="M23.7,457.4h-2.3v-1.2h2.3v-0.8c0-5.8,3.4-9.8,7.7-9.8c2.7,0,4.3,1.4,4.3,3.3c0,1.6-0.8,2.5-2.3,2.5
		c-1.3,0-2.2-0.9-2.2-2.2c0-1.2,1-1.6,1-2c0-0.3-0.4-0.5-1.1-0.5c-1.5,0-2.4,1.2-2.4,3.7c0,1.7,0.1,3.2,0.1,4.4v1.5H32v1.2h-3.2
		v12.9h2.6v1.2h-9.8v-1.2h2.1V457.4z"/>
	<path class="st0" d="M43.2,455.7c5.2,0,8.7,3.4,8.7,8c0,4.6-3.5,8.1-8.7,8.1s-8.6-3.4-8.6-8C34.5,459.2,38,455.7,43.2,455.7
		 M40.3,463.8v1.6c0,3.9,0.2,5.6,2.9,5.6c2.7,0,2.9-1.8,2.9-6.5v-2.3c0-3.8-0.2-5.4-2.9-5.4C40.4,456.7,40.3,458.6,40.3,463.8"/>
	<path class="st0" d="M54.3,470.2h2v-12.9h-2v-1.2c2.3-0.1,4.7-0.2,7-0.5v4.2c1-2.6,2.7-4.1,4.5-4.1c1.8,0,3.2,1.4,3.2,3.2
		c0,1.6-1.1,2.8-2.6,2.8c-1.3,0-2.4-1.1-2.4-2.6c0-0.7,0.4-1,0.4-1.4c0-0.1-0.1-0.2-0.3-0.2c-0.9,0-2.8,2.7-2.8,5.8v6.9H64v1.2h-9.7
		V470.2z"/>
	<path class="st0" d="M84.7,470.1v-22.9h-2.8v-1.2h13.4c5.6,0,8.6,2,8.6,5.5c0,3.6-2.8,5.8-8,6.1v0.3c5.4,0.8,7.2,3.3,7.2,9
		c0,2,0.2,3,1.6,3c0.4,0,1-0.1,1.6-0.4l0.4,1.1c-1.7,0.8-3.2,1.2-4.2,1.2c-2.1,0-3.7-0.7-4.7-1.8c-1.6-1.9-1.5-4.3-1.6-7.1
		c-0.1-3.4-1.3-4.7-4.8-4.7h-0.6v11.8h3.1v1.3H81.9v-1.3H84.7z M93.8,457.1c3,0,3.5-1.2,3.5-4.8c0-4.4-0.1-5.1-3.5-5.1h-3v9.9H93.8z
		"/>
	<path class="st0" d="M123.4,466.6c-1.2,3.6-3.6,5.3-7.3,5.3c-5.2,0-8.4-3.2-8.4-7.9c0-4.6,3.5-8.2,8.4-8.2c4.4,0,7.2,2.8,7.2,7.2
		v0.2h-9.7v3.8c0,2.7,0.6,3.9,3,3.9c3,0,5-1.6,6.1-4.6L123.4,466.6z M118.4,462v-3c0-1.6-0.7-2.3-2.4-2.3c-1.6,0-2.4,0.7-2.4,2.3v3
		H118.4z"/>
	<path class="st0" d="M141,466.6c-1.1,3.5-3.4,5.2-6.6,5.2c-4.7,0-8.2-3.6-8.2-8.1c0-4.4,3.7-8,8.5-8c3.4,0,5.6,1.9,5.6,4.3
		c0,1.4-1,2.5-2.4,2.5c-1.6,0-2.5-1.1-2.5-2.6c0-1.5,1.1-1.9,1.1-2.4c0-0.6-0.6-0.9-1.9-0.9c-2.7,0-2.8,1.5-2.8,4.7v4.7
		c0,3.2,0.3,4.6,2.9,4.6c2.6,0,4.4-1.5,5.3-4.4L141,466.6z"/>
	<path class="st0" d="M152.2,455.7c5.2,0,8.7,3.4,8.7,8c0,4.6-3.5,8.1-8.7,8.1c-5.2,0-8.6-3.4-8.6-8
		C143.6,459.2,147,455.7,152.2,455.7 M149.3,463.8v1.6c0,3.9,0.2,5.6,2.9,5.6s2.9-1.8,2.9-6.5v-2.3c0-3.8-0.2-5.4-2.9-5.4
		C149.4,456.7,149.3,458.6,149.3,463.8"/>
	<path class="st0" d="M165.2,470.2v-12.9h-2.4v-1.2c2.4,0,4.9-0.1,7.5-0.3v3.9c1.4-2.7,3.2-3.9,5.9-3.9c3.8,0,4.3,1.9,4.3,5.5v8.9
		h2.1v1.2h-9v-1.2h1.9v-10.8c0-1.4-0.4-2.1-1.5-2.1c-1.7,0-3.6,2.5-3.6,5.5v7.3h1.8v1.2H163v-1.2H165.2z"/>
	<path class="st0" d="M184.7,465.7h1c0.8,3.3,2.7,5.1,5.3,5.1c2.2,0,3.5-1.3,3.5-2.8c0-1.8-1.7-1.6-4.7-2.1
		c-3.5-0.5-5.1-1.7-5.1-4.7c0-3.4,2.1-5.5,5.2-5.5c1.3,0,2.5,0.4,3.5,0.9l0.8-0.7h0.7l0.1,4.3h-1c-0.7-2.4-2.1-3.6-4.1-3.6
		c-2.1,0-3.4,1-3.4,2.1c0,1.4,1.6,1.4,4.7,1.9c3.7,0.5,5.3,1.8,5.3,5.3c0,3.6-2.1,5.8-5.6,5.8c-1.7,0-3.1-0.5-4.2-1.3l-1,0.9h-0.9
		L184.7,465.7z"/>
	<path class="st0" d="M200.4,457.3h-2.1v-1.2h2.1v-4.7c0.7,0.1,1.4,0.1,2.1,0.1c0.9,0,1.8-0.1,2.8-0.2v4.8h3v1.2h-3v10.6
		c0,1.3,0.3,1.7,1.2,1.7c0.9,0,1.6-0.9,1.7-2.2h1c-0.1,2.6-2.2,4.4-5.1,4.4c-3.2,0-3.7-1.1-3.7-3.9V457.3z"/>
	<path class="st0" d="M210.8,470.2h2v-12.9h-2v-1.2c2.3-0.1,4.7-0.2,7-0.5v4.2c1-2.6,2.7-4.1,4.5-4.1c1.8,0,3.2,1.4,3.2,3.2
		c0,1.6-1.1,2.8-2.6,2.8c-1.3,0-2.4-1.1-2.4-2.6c0-0.7,0.4-1,0.4-1.4c0-0.1-0.1-0.2-0.3-0.2c-0.8,0-2.8,2.7-2.8,5.8v6.9h2.7v1.2
		h-9.7V470.2z"/>
	<path class="st0" d="M244.1,470.2h2.4v1.2c-2.5,0-4.9,0.1-7.4,0.3v-3.9c-1.4,2.7-3.2,4-5.9,4c-1.7,0-2.9-0.5-3.7-1.5
		c-0.5-0.7-0.6-1.7-0.6-3v-1.6v-8.4h-2.4v-1.2c2.7,0,5.2-0.2,7.4-0.4V468c0,1.4,0.4,2.1,1.5,2.1c1.7,0,3.6-2.6,3.6-5.6v-7.2h-2.6
		v-1.2c2.6,0,5.1-0.2,7.7-0.4V470.2z"/>
	<path class="st0" d="M263.1,466.6c-1.1,3.5-3.4,5.2-6.6,5.2c-4.7,0-8.2-3.6-8.2-8.1c0-4.4,3.7-8,8.5-8c3.4,0,5.6,1.9,5.6,4.3
		c0,1.4-1,2.5-2.4,2.5c-1.6,0-2.5-1.1-2.5-2.6c0-1.5,1.1-1.9,1.1-2.4c0-0.6-0.6-0.9-1.9-0.9c-2.7,0-2.8,1.5-2.8,4.7v4.7
		c0,3.2,0.3,4.6,2.9,4.6c2.6,0,4.4-1.5,5.3-4.4L263.1,466.6z"/>
	<path class="st0" d="M267.4,457.3h-2.1v-1.2h2.1v-4.7c0.7,0.1,1.4,0.1,2.1,0.1c0.9,0,1.8-0.1,2.8-0.2v4.8h3v1.2h-3v10.6
		c0,1.3,0.3,1.7,1.2,1.7c0.9,0,1.6-0.9,1.7-2.2h1c-0.1,2.6-2.2,4.4-5.1,4.4c-3.2,0-3.7-1.1-3.7-3.9V457.3z"/>
	<path class="st0" d="M277.6,470.2h2.2v-12.9h-2.4v-1.2c2.7-0.1,5.2-0.2,7.5-0.5v14.5h2.3v1.2h-9.6V470.2z M282.2,446.9
		c1.4,0,2.6,1.2,2.6,2.7c0,1.5-1.1,2.7-2.6,2.7c-1.4,0-2.6-1.3-2.6-2.7C279.6,448.1,280.8,446.9,282.2,446.9"/>
	<path class="st0" d="M297.3,455.7c5.2,0,8.7,3.4,8.7,8c0,4.6-3.5,8.1-8.7,8.1c-5.2,0-8.6-3.4-8.6-8
		C288.7,459.2,292.1,455.7,297.3,455.7 M294.4,463.8v1.6c0,3.9,0.2,5.6,2.9,5.6s2.9-1.8,2.9-6.5v-2.3c0-3.8-0.2-5.4-2.9-5.4
		C294.5,456.7,294.4,458.6,294.4,463.8"/>
	<path class="st0" d="M310,470.2v-12.9h-2.4v-1.2c2.4,0,4.9-0.1,7.5-0.3v3.9c1.4-2.7,3.2-3.9,5.9-3.9c3.8,0,4.3,1.9,4.3,5.5v8.9h2.1
		v1.2h-9v-1.2h1.9v-10.8c0-1.4-0.4-2.1-1.5-2.1c-1.7,0-3.6,2.5-3.6,5.5v7.3h1.8v1.2h-9.2v-1.2H310z"/>
	<path class="st0" d="M344.1,471.8c-2.5,0-3.9-1.4-3.9-3.8c0-3.2,3.3-5.4,9.3-5.4v-3.7c0-1.6-0.4-2.1-2.5-2.1
		c-1.3,0-1.9,0.3-1.9,0.9c0,0.4,0.7,0.9,0.7,2c0,1.5-0.9,2.3-2.5,2.3c-1.4,0-2.2-0.9-2.2-2.4c0-2.4,2.4-3.9,6.8-3.9
		c2.1,0,3.6,0.4,4.5,0.9c1.4,0.8,1.5,1.8,1.5,3.5v7.9c0,0.9,0.3,1.3,1.1,1.3c0.5,0,0.7-0.3,0.9-0.3c0.2,0,0.4,0.2,0.4,0.4
		c0,0.7-1.3,2.4-3.5,2.4c-1.6,0-2.9-1-3.4-2.6C348.2,471,346.5,471.8,344.1,471.8 M349.1,463.6c-2.9,0-4,0.7-4,3
		c0,2.1,0.6,3.1,2,3.1c1.4,0,2.4-1,2.4-2.8v-3.3H349.1z"/>
	<path class="st0" d="M359.7,470.2v-12.9h-2.4v-1.2c2.4,0,4.9-0.1,7.5-0.3v3.9c1.4-2.7,3.2-3.9,5.9-3.9c3.8,0,4.3,1.9,4.3,5.5v8.9
		h2.1v1.2h-9v-1.2h1.9v-10.8c0-1.4-0.4-2.1-1.5-2.1c-1.7,0-3.6,2.5-3.6,5.5v7.3h1.8v1.2h-9.2v-1.2H359.7z"/>
	<path class="st0" d="M390.2,469c-1.1,1.9-2.7,2.9-4.8,2.9c-3.8,0-6.8-3.5-6.8-8c0-4.7,2.9-8.1,6.8-8.1c2.1,0,3.7,1,4.8,2.9v-11.4
		h-2.8v-1.2c3.1-0.1,5.7-0.2,7.8-0.5v24.6h2v1.2h-7V469z M390.2,462.4c0-3.4-1.7-5.5-4.1-5.5c-1.6,0-1.8,0.9-1.8,2.8v8.1
		c0,2,0.3,3,1.8,3c2.4,0,4.1-2.1,4.1-5.5V462.4z"/>
	<path class="st0" d="M413.1,470.1v-22.9h-2.9v-1.2h12.3c3.2,0,5.7,0.5,7.9,2.3c2.9,2.2,4.7,6.1,4.7,10.4c0,4.3-1.9,8.2-4.8,10.5
		c-2,1.5-4.6,2.2-8,2.2h-12.2v-1.3H413.1z M422.2,470.1c2.2,0,3.6-0.2,4.6-1.5c1.3-1.6,1.5-4.4,1.5-8.5v-1.8c0-4.1-0.1-7-1-8.9
		c-1-2-2.5-2.3-5.1-2.3h-3v22.9H422.2z"/>
	<path class="st0" d="M453.4,466.6c-1.2,3.6-3.6,5.3-7.3,5.3c-5.2,0-8.4-3.2-8.4-7.9c0-4.6,3.5-8.2,8.4-8.2c4.4,0,7.2,2.8,7.2,7.2
		v0.2h-9.7v3.8c0,2.7,0.6,3.9,3,3.9c3,0,5-1.6,6.1-4.6L453.4,466.6z M448.4,462v-3c0-1.6-0.7-2.3-2.4-2.3c-1.6,0-2.4,0.7-2.4,2.3v3
		H448.4z"/>
	<path class="st0" d="M456,457.4h-1.6v-1.2h8.9v1.2h-1.8l3.6,8.5l2.9-7c0.1-0.2,0.2-0.5,0.2-0.9c0-0.4-0.3-0.6-1-0.6h-1.6v-1.2h6
		v1.2h-1c-0.6,0-0.9,0.2-1.3,1.1l-5.6,13.5h-1L456,457.4z"/>
	<path class="st0" d="M488.1,466.6c-1.2,3.6-3.5,5.3-7.3,5.3c-5.2,0-8.4-3.2-8.4-7.9c0-4.6,3.5-8.2,8.4-8.2c4.4,0,7.2,2.8,7.2,7.2
		v0.2h-9.7v3.8c0,2.7,0.6,3.9,3,3.9c3,0,5-1.6,6.1-4.6L488.1,466.6z M483.1,462v-3c0-1.6-0.7-2.3-2.4-2.3c-1.6,0-2.4,0.7-2.4,2.3v3
		H483.1z"/>
	<path class="st0" d="M491.7,470.2v-23h-2.4v-1.2c2.7-0.1,5.2-0.2,7.5-0.5v24.6h2.3v1.2h-9.6v-1.2H491.7z"/>
	<path class="st0" d="M509.5,455.7c5.2,0,8.7,3.4,8.7,8c0,4.6-3.5,8.1-8.7,8.1c-5.2,0-8.6-3.4-8.6-8
		C500.8,459.2,504.3,455.7,509.5,455.7 M506.6,463.8v1.6c0,3.9,0.2,5.6,2.9,5.6c2.7,0,2.9-1.8,2.9-6.5v-2.3c0-3.8-0.2-5.4-2.9-5.4
		C506.7,456.7,506.6,458.6,506.6,463.8"/>
	<path class="st0" d="M520.1,478.8h2.1v-21.4h-2.4v-1.2c2.7-0.1,5.2-0.2,7.5-0.5v2.9c1.1-1.9,2.7-2.9,4.7-2.9c3.9,0,6.8,3.4,6.8,8.1
		c0,4.6-3,8-6.8,8c-2.1,0-3.6-0.9-4.7-2.9v9.8h2.7v1.2h-9.8V478.8z M533.2,459.8c0-2-0.2-3-1.9-3c-2.4,0-4.1,2.1-4.1,5.5v2.9
		c0,3.4,1.7,5.5,4.1,5.5c1.6,0,1.9-1,1.9-2.9V459.8z"/>
	<path class="st0" d="M543,470.2v-12.9h-2.3v-1.2c2.3,0,4.7-0.1,7.2-0.3v3.9c1.4-2.7,3.1-3.9,5.8-3.9c2.7,0,4.1,1.3,4.2,3.8
		c1.4-2.6,3.1-3.8,5.8-3.8c1.7,0,2.9,0.5,3.6,1.4c0.6,0.7,0.6,1.6,0.6,2.8v1.1v9.1h2.3v1.2h-9.2v-1.2h1.9v-10.7c0-1.4-0.4-2-1.5-2
		c-1.7,0-3.6,2.4-3.6,5.5v7.2h1.8v1.2h-8.6v-1.2h1.9v-10.7c0-1.4-0.4-2-1.5-2c-1.7,0-3.5,2.5-3.5,5.5v7.2h1.8v1.2H541v-1.2H543z"/>
	<path class="st0" d="M587.6,466.6c-1.2,3.6-3.5,5.3-7.3,5.3c-5.2,0-8.4-3.2-8.4-7.9c0-4.6,3.5-8.2,8.4-8.2c4.4,0,7.2,2.8,7.2,7.2
		v0.2h-9.7v3.8c0,2.7,0.6,3.9,3,3.9c3,0,5-1.6,6.1-4.6L587.6,466.6z M582.6,462v-3c0-1.6-0.7-2.3-2.4-2.3c-1.6,0-2.4,0.7-2.4,2.3v3
		H582.6z"/>
	<path class="st0" d="M591.9,470.2v-12.9h-2.4v-1.2c2.4,0,4.9-0.1,7.5-0.3v3.9c1.4-2.7,3.2-3.9,5.9-3.9c3.8,0,4.3,1.9,4.3,5.5v8.9
		h2.1v1.2h-9v-1.2h1.9v-10.8c0-1.4-0.4-2.1-1.5-2.1c-1.7,0-3.6,2.5-3.6,5.5v7.3h1.8v1.2h-9.2v-1.2H591.9z"/>
</g>
<g>
	<path class="st0" d="M612.6,457.3h-2.1v-1.2h2.1v-4.7c0.7,0.1,1.4,0.1,2.2,0.1c0.9,0,1.8-0.1,2.8-0.2v4.8h3v1.2h-3v10.6
		c0,1.3,0.3,1.7,1.2,1.7s1.6-0.9,1.7-2.2h1c-0.1,2.6-2.2,4.4-5.1,4.4c-3.2,0-3.7-1.1-3.7-3.9V457.3z"/>
	<path class="st1" d="M367.2,181.9c-14.1-7.1-33.4-9.8-48.7-3.3c-31.8,13.9-43.1,48.5-43.4,80.7c0.6,18.2,5.5,34.8,14.6,49.3
		c5.9-4.6,8.6-11.4,11.5-17.6c4.3-10.9,6.7-22.5,6.5-35.2c1-23.8,10-50.1,33.6-60.3c18.1-6.7,36.5,1.1,48.8,15.4
		c15,18.1,21.1,43.9,14.6,67.3c-4.1,17.7-17.4,38.3-36.3,43.2c-9.2,2.6-19.9,1.1-28-3.3c-4.8,7.6-11,14.8-18.3,20.2l0,0.2
		c13.8,6.2,32.2,5.1,45.3-2.2c-24.3,18.2-62.4,23.1-91.2,11c-7.2-2.9-14.1-6.6-20.6-11.3c15.1,8.5,38.7,10.9,54.6,1.2
		c25.8-15.5,36.3-43.7,37.8-71.7c1-20.9-4.4-39.7-14.5-56c-6.2,4.9-9.1,11.9-11.9,18.5c-4.7,11.7-6.4,24.5-6.2,38
		c-1.8,22.1-11,46.2-32.6,56.2c-15.7,6.7-33.4,0.7-45.4-11c-19.8-19.3-25.9-51.3-16.7-77.4c4.6-15.6,17.7-33.2,34.4-37.1
		c8.9-2.7,19.7-1,27.7,3.3c4.6-7.4,11.1-14.7,18.4-19.7l0-0.2c-13.1-6-31.9-5.2-44.6,1.7c22.4-16.2,56.4-21.8,84-12.7
		C349.8,172,358.9,176.1,367.2,181.9"/>
</g>
</svg>
