<?xml version="1.0" encoding="utf-8"?>
<!-- Generator: Adobe Illustrator 24.0.0, SVG Export Plug-In . SVG Version: 6.00 Build 0)  -->
<svg version="1.1" id="Layer_1" xmlns="http://www.w3.org/2000/svg" xmlns:xlink="http://www.w3.org/1999/xlink" x="0px" y="0px"
	 viewBox="0 0 194.4 312.4" style="enable-background:new 0 0 194.4 312.4;" xml:space="preserve" width="512px" height="512px">
<g>
	<path d="M194.4,5.2c0-0.1,0-0.2,0-0.4c0-0.2,0-0.4-0.1-0.6c0-0.2-0.1-0.3-0.1-0.5s-0.1-0.3-0.1-0.5c-0.1-0.2-0.2-0.4-0.3-0.5
		c-0.1-0.1-0.1-0.2-0.1-0.3c0,0,0,0-0.1-0.1c-0.1-0.2-0.2-0.3-0.4-0.5c-0.1-0.1-0.2-0.2-0.3-0.3c-0.1-0.1-0.3-0.2-0.4-0.3
		c-0.1-0.1-0.2-0.2-0.4-0.3c-0.1-0.1-0.3-0.2-0.4-0.3c-0.1-0.1-0.3-0.2-0.4-0.2c-0.2-0.1-0.3-0.1-0.5-0.2c-0.1,0-0.3-0.1-0.4-0.1
		c-0.2,0-0.3,0-0.5-0.1c-0.2,0-0.4-0.1-0.5-0.1h-0.1H92.2c-0.1,0-0.2,0-0.4,0s-0.4,0-0.6,0.1c-0.2,0-0.3,0.1-0.5,0.1
		s-0.3,0.1-0.5,0.1c-0.2,0.1-0.3,0.2-0.5,0.3c-0.1,0.1-0.2,0.1-0.3,0.2l-86.9,54c0,0,0,0-0.1,0.1c-0.2,0.1-0.3,0.2-0.5,0.4
		c-0.1,0.1-0.2,0.2-0.3,0.3s-0.2,0.3-0.3,0.4C1.2,56,1.1,56.1,1,56.3c-0.1,0.1-0.2,0.3-0.3,0.5c-0.1,0.1-0.2,0.3-0.2,0.4
		c-0.1,0.2-0.1,0.3-0.2,0.5c0,0.2-0.1,0.3-0.1,0.5s0,0.3-0.1,0.5c0,0.2-0.1,0.4-0.1,0.6v0.1v248c0,2.9,2.3,5.2,5.2,5.2h97.1l0,0l0,0
		c0.3,0,0.6,0,0.9-0.1c0.1,0,0.2,0,0.2-0.1c0.2-0.1,0.5-0.1,0.7-0.2c0,0,0.1,0,0.1-0.1c0.2-0.1,0.5-0.2,0.7-0.4l86.9-54
		c0,0,0,0,0.1-0.1c0.2-0.1,0.3-0.2,0.5-0.4c0.1-0.1,0.2-0.2,0.3-0.3c0.1-0.1,0.2-0.3,0.3-0.4s0.2-0.2,0.3-0.4
		c0.1-0.1,0.2-0.3,0.3-0.5c0.1-0.1,0.2-0.3,0.2-0.4c0.1-0.2,0.1-0.3,0.2-0.5c0-0.2,0.1-0.3,0.1-0.5s0-0.3,0.1-0.5
		c0-0.2,0.1-0.4,0.1-0.6V253L194.4,5.2L194.4,5.2z M93.6,10.4h77.5l-70.3,43.7H23.4L93.6,10.4z M107.5,62.1l76.6-47.6v235.9
		L107.5,298V62.1z M97.2,302.1H10.4V64.4h86.8V302.1z" fill="#ffffff"/>
	<path d="M127,82.5v-5.3c0-2.9-2.3-5.2-5.2-5.2s-5.2,2.3-5.2,5.2v5.3c0,2.9,2.3,5.2,5.2,5.2C124.6,87.7,127,85.4,127,82.5z" fill="#ffffff"/>
	<path d="M168,170c2.9,0,5.2-2.3,5.2-5.2v-5.3c0-2.9-2.3-5.2-5.2-5.2s-5.2,2.3-5.2,5.2v5.3C162.8,167.7,165.1,170,168,170z" fill="#ffffff"/>
	<path d="M37,199.8c-2.9,0-5.2,2.3-5.2,5.2v5.3c0,2.9,2.3,5.2,5.2,5.2c2.9,0,5.2-2.3,5.2-5.2V205C42.2,202.1,39.9,199.8,37,199.8z"
		fill="#ffffff"/>
	<path d="M31.9,284.3c2.9,0,5.2-2.3,5.2-5.2v-5.3c0-2.9-2.3-5.2-5.2-5.2c-2.9,0-5.2,2.3-5.2,5.2v5.3C26.7,282,29,284.3,31.9,284.3z"
		fill="#ffffff"/>
	<path d="M31.9,155.8v5.3c0,2.9,2.3,5.2,5.2,5.2c2.9,0,5.2-2.3,5.2-5.2v-5.3c0-2.9-2.3-5.2-5.2-5.2S31.9,152.9,31.9,155.8z" fill="#ffffff"/>
	<path d="M57.6,123.9c2.9,0,5.2-2.3,5.2-5.2v-5.3c0-2.9-2.3-5.2-5.2-5.2c-2.9,0-5.2,2.3-5.2,5.2v5.3
		C52.4,121.6,54.7,123.9,57.6,123.9z" fill="#ffffff"/>
	<path d="M152.3,113.6c-2.9,0-5.2,2.3-5.2,5.2v5.3c0,2.9,2.3,5.2,5.2,5.2s5.2-2.3,5.2-5.2v-5.3C157.5,115.9,155.2,113.6,152.3,113.6
		z" fill="#ffffff"/>
	<path d="M127,150.6c-2.9,0-5.2,2.3-5.2,5.2v5.3c0,2.9,2.3,5.2,5.2,5.2s5.2-2.3,5.2-5.2v-5.3C132.1,152.9,129.8,150.6,127,150.6z" fill="#ffffff"/>
	<path d="M127,253.2c-2.9,0-5.2,2.3-5.2,5.2v5.3c0,2.9,2.3,5.2,5.2,5.2s5.2-2.3,5.2-5.2v-5.3C132.1,255.5,129.8,253.2,127,253.2z" fill="#ffffff"/>
	<path d="M168.3,226c-2.9,0-5.2,2.3-5.2,5.2v5.3c0,2.9,2.3,5.2,5.2,5.2s5.2-2.3,5.2-5.2v-5.3C173.4,228.3,171.1,226,168.3,226z" fill="#ffffff"/>
	<path d="M72.4,170c2.9,0,5.2-2.3,5.2-5.2v-5.3c0-2.9-2.3-5.2-5.2-5.2s-5.2,2.3-5.2,5.2v5.3C67.2,167.6,69.5,170,72.4,170z" fill="#ffffff"/>
	<path d="M72.4,218.1c2.9,0,5.2-2.3,5.2-5.2v-5.3c0-2.9-2.3-5.2-5.2-5.2s-5.2,2.3-5.2,5.2v5.3C67.2,215.8,69.5,218.1,72.4,218.1z" fill="#ffffff"/>
	<path d="M72.4,288.1c2.9,0,5.2-2.3,5.2-5.2v-5.3c0-2.9-2.3-5.2-5.2-5.2s-5.2,2.3-5.2,5.2v5.3C67.2,285.8,69.5,288.1,72.4,288.1z" fill="#ffffff"/>
	<path d="M76.9,92.6c2.9,0,5.2-2.3,5.2-5.2v-5.3c0-2.9-2.3-5.2-5.2-5.2s-5.2,2.3-5.2,5.2v5.3C71.7,90.3,74,92.6,76.9,92.6z" fill="#ffffff"/>
	<path d="M31.9,92.6c2.9,0,5.2-2.3,5.2-5.2v-5.3c0-2.9-2.3-5.2-5.2-5.2c-2.9,0-5.2,2.3-5.2,5.2v5.3C26.7,90.3,29,92.6,31.9,92.6z" fill="#ffffff"/>
	<path d="M145.8,196.6c-2.9,0-5.2,2.3-5.2,5.2v5.3c0,2.9,2.3,5.2,5.2,5.2s5.2-2.3,5.2-5.2v-5.3C151,199,148.6,196.6,145.8,196.6z" fill="#ffffff"/>
	<path d="M52.4,248.1c2.9,0,5.2-2.3,5.2-5.2v-5.3c0-2.9-2.3-5.2-5.2-5.2c-2.9,0-5.2,2.3-5.2,5.2v5.3
		C47.3,245.8,49.6,248.1,52.4,248.1z" fill="#ffffff"/>
	<path d="M168.3,60.5c-2.9,0-5.2,2.3-5.2,5.2V71c0,2.9,2.3,5.2,5.2,5.2s5.2-2.3,5.2-5.2v-5.3C173.4,62.8,171.1,60.5,168.3,60.5z" fill="#ffffff"/>
	<path d="M75.1,47.9c2.9,0,5.2-2.3,5.2-5.2v-5.3c0-2.9-2.3-5.2-5.2-5.2s-5.2,2.3-5.2,5.2v5.3C70,45.6,72.3,47.9,75.1,47.9z" fill="#ffffff"/>
	<path d="M107.5,30.9c2.9,0,5.2-2.3,5.2-5.2v-5.3c0-2.9-2.3-5.2-5.2-5.2s-5.2,2.3-5.2,5.2v5.3C102.3,28.5,104.7,30.9,107.5,30.9z" fill="#ffffff"/>
</g>
</svg>
