<?xml version="1.0"?>
<svg xmlns="http://www.w3.org/2000/svg" xmlns:xlink="http://www.w3.org/1999/xlink" xmlns:svgjs="http://svgjs.com/svgjs" version="1.1" width="512" height="512" x="0" y="0" viewBox="0 0 512 512.00049" style="enable-background:new 0 0 512 512" xml:space="preserve" class=""><g><path xmlns="http://www.w3.org/2000/svg" d="m149.046875 157.832031 120.507813 120.507813c2.734374-29.671875 8.316406-138.253906-48.828126-195.398438-19.40625-19.40625-45.070312-31.863281-71.679687-39.785156zm0 0" fill="#ffffff" data-original="#000000" style="" class=""/><path xmlns="http://www.w3.org/2000/svg" d="m.832031 52.039062c-1.410156 21.28125-3.4375 84.691407 16.601563 140h123.398437zm0 0" fill="#ffffff" data-original="#000000" style="" class=""/><path xmlns="http://www.w3.org/2000/svg" d="m119.046875 127.835938v-91.789063c-41.878906-7.65625-81.140625-6.269531-97.003906-5.21875zm0 0" fill="#ffffff" data-original="#000000" style="" class=""/><path xmlns="http://www.w3.org/2000/svg" d="m170.828125 222.039062h-139.589844c6.042969 10.464844 13.203125 20.179688 21.707031 28.683594 42.734376 42.734375 114.226563 50.390625 159.980469 50.390625 15.433594 0 27.929688-.875 35.417969-1.5625zm0 0" fill="#ffffff" data-original="#000000" style="" class=""/><path xmlns="http://www.w3.org/2000/svg" d="m485.039062 119.046875c7.65625-41.878906 6.265626-81.140625 5.21875-97.003906l-97.007812 97.003906zm0 0" fill="#ffffff" data-original="#000000" style="" class=""/><path xmlns="http://www.w3.org/2000/svg" d="m329.046875 140.832031 140-140c-21.28125-1.410156-84.691406-3.4375-140 16.601563zm0 0" fill="#ffffff" data-original="#000000" style="" class=""/><path xmlns="http://www.w3.org/2000/svg" d="m363.253906 149.046875-63.242187 63.242187c1.699219 23.40625 1.128906 44.078126.230469 58.214844 44.421874-2.46875 101.558593-13.4375 137.898437-49.777344 19.40625-19.40625 31.867187-45.070312 39.789063-71.679687zm0 0" fill="#ffffff" data-original="#000000" style="" class=""/><path xmlns="http://www.w3.org/2000/svg" d="m295.332031 174.546875 3.714844-3.714844v-139.59375c-10.464844 6.039063-20.179687 13.203125-28.6875 21.707031-6.515625 6.515626-12.199219 13.707032-17.179687 21.363282 12.816406 15.953125 23.199218 35.078125 30.945312 57.085937 4.691406 13.332031 8.4375 27.773438 11.207031 43.152344zm0 0" fill="#ffffff" data-original="#000000" style="" class=""/><path xmlns="http://www.w3.org/2000/svg" d="m71.8125 407.660156h37.996094c6.5 0 10.25 6.25 10.25 13 0 5.75-3.25 12.5-10.25 12.5h-37.996094v50.242188h70.742188c6.5 0 10.25 6.75 10.25 14.5 0 6.75-3.25 14-10.25 14h-88.992188c-7.246094 0-14.246094-3.5-14.246094-10.25v-162.234375c0-6.75 7-10.25 14.246094-10.25h88.992188c7 0 10.25 7.25 10.25 14 0 7.746093-3.75 14.496093-10.25 14.496093h-70.742188zm0 0" fill="#ffffff" data-original="#000000" style="" class=""/><path xmlns="http://www.w3.org/2000/svg" d="m241.296875 356.265625c-16.75 0-26.246094 9.246094-26.246094 28.746094v69.742187c0 19.5 9.496094 28.75 26.746094 28.75 22.746094 0 24.746094-16.25 25.496094-26.75.5-7.746094 7.5-10.246094 16-10.246094 11.25 0 16.5 3.25 16.5 15.996094 0 30.25-24.75 49.496094-59.746094 49.496094-31.496094 0-57.496094-15.5-57.496094-57.246094v-69.742187c0-41.746094 26.25-57.246094 57.746094-57.246094 34.746094 0 59.496094 18.5 59.496094 47.496094 0 13-5.25 16-16.25 16-9.25 0-16-2.75-16.25-10.25-.5-7.75-2.25-24.746094-25.996094-24.746094zm0 0" fill="#ffffff" data-original="#000000" style="" class=""/><path xmlns="http://www.w3.org/2000/svg" d="m332.285156 454.753906v-69.742187c0-41.746094 25.5-57.246094 58.496094-57.246094s58.742188 15.5 58.742188 57.246094v69.742187c0 41.746094-25.746094 57.246094-58.742188 57.246094s-58.496094-15.5-58.496094-57.246094zm84.742188-69.742187c0-19.75-10-28.746094-26.246094-28.746094-16.5 0-26 8.996094-26 28.746094v69.742187c0 19.75 9.5 28.75 26 28.75 16.246094 0 26.246094-9 26.246094-28.75zm0 0" fill="#ffffff" data-original="#000000" style="" class=""/></g></svg>
