<?xml version="1.0" encoding="utf-8"?>
<!-- Generator: Adobe Illustrator 24.0.0, SVG Export Plug-In . SVG Version: 6.00 Build 0)  -->
<svg version="1.1" id="Layer_1" xmlns="http://www.w3.org/2000/svg" xmlns:xlink="http://www.w3.org/1999/xlink" x="0px" y="0px"
	 viewBox="0 0 329.6 312.4" style="enable-background:new 0 0 329.6 312.4;" xml:space="preserve" >
<g>
	<g>
		<g>
			<path d="M289.3,31.1H40.1c-3,0-5.5,2.5-5.5,5.5v275.8h11.7v-34.2c0-3,2.5-5.5,5.5-5.5h225.7c3,0,5.5,2.5,5.5,5.5v34.2h11.7V36.6
				C294.8,33.5,292.4,31.1,289.3,31.1z M283.1,255.5c0,3-2.5,5.5-5.5,5.5H51.9c-3,0-5.5-2.5-5.5-5.5v-53.9c0-3,2.5-5.5,5.5-5.5
				h225.7c3,0,5.5,2.5,5.5,5.5V255.5z M283.1,178.9c0,3-2.5,5.5-5.5,5.5H51.9c-3,0-5.5-2.5-5.5-5.5V125c0-3,2.5-5.5,5.5-5.5h225.7
				c3,0,5.5,2.5,5.5,5.5V178.9z M283.1,102.2c0,3-2.5,5.5-5.5,5.5H51.9c-3,0-5.5-2.5-5.5-5.5V48.3c0-3,2.5-5.5,5.5-5.5h225.7
				c3,0,5.5,2.5,5.5,5.5V102.2z" fill="#ffffff" />
		</g>
	</g>
</g>
<g>
	<path d="M329.7,5.5v306.9h-11V16.5c0-3-2.5-5.5-5.5-5.5H16.6c-3,0-5.5,2.5-5.5,5.5v295.9h-11V5.5c0-3,2.5-5.5,5.5-5.5h318.7
		C327.3,0,329.7,2.5,329.7,5.5z" fill="#ffffff" />
</g>
</svg>
