<?xml version="1.0" encoding="utf-8"?>
<!-- Generator: Adobe Illustrator 24.0.0, SVG Export Plug-In . SVG Version: 6.00 Build 0)  -->
<svg version="1.1" id="Layer_1" xmlns="http://www.w3.org/2000/svg" xmlns:xlink="http://www.w3.org/1999/xlink" x="0px" y="0px"
	 viewBox="0 0 242.4 271.6" style="enable-background:new 0 0 242.4 271.6;" xml:space="preserve" width="512px" height="512px">
<g id="XMLID_15_">
	<path id="XMLID_16_" class="st0" d="M130.5,167.4c-2.8,1.8-6,2.8-9.2,2.8c-3.3,0-6.5-1-9.2-2.8l-44.6-29.1l-31.5-20.6l-22,14.4
		c-0.6,0.4-1.1,0.9-1.5,1.4c0,0.1-0.1,0.1-0.1,0.2c0,0.1-0.1,0.1-0.1,0.2c-1.1,1.9-1,4.3,0.3,6.1c0.4,0.5,0.8,0.9,1.4,1.3l98.5,64.4
		l0.3,0.2c2.4,1.6,5.2,2.5,8.1,2.6c0.1,0,0.3,0,0.4,0c0.1,0,0.2,0,0.4,0c3-0.1,5.9-1,8.4-2.7l0.1-0.1l98.5-64.4
		c1.1-0.7,1.9-1.8,2.3-3c0.1-0.3,0.2-0.6,0.2-1c0-0.2,0-0.4,0-0.7v0c0-0.2,0-0.4,0-0.6c-0.2-1.5-1-3-2.5-4l-22-14.4l-32,20.9
		L130.5,167.4z" fill="#2f2f2f" />
	<path id="XMLID_25_" class="st0" d="M130.5,218.9c-2.8,1.8-6,2.8-9.2,2.8c-3.3,0-6.5-1-9.2-2.8l-76.2-49.7l-22,14.4
		c-0.6,0.4-1.1,0.9-1.5,1.4c0,0.1-0.1,0.1-0.1,0.2c0,0.1-0.1,0.1-0.1,0.2c-1.1,1.9-1,4.3,0.3,6.1c0.4,0.5,0.8,0.9,1.4,1.3l98.9,64.6
		c0,0,0.3,0.2,0.7,0.4c2.3,1.5,4.9,2.3,7.6,2.3c0,0,0,0,0.1,0c0,0,0,0,0.1,0c2.8,0,5.6-0.9,7.9-2.4l0.5-0.3l98.9-64.6
		c1.1-0.7,1.9-1.8,2.3-3c0.1-0.3,0.2-0.6,0.2-1c0-0.2,0-0.4,0-0.7v0c0-0.2,0-0.4,0-0.6c-0.2-1.5-1-3-2.5-4l-22-14.4L130.5,218.9z" fill="#2f2f2f" />
	<path id="XMLID_29_" class="st0" d="M228.6,80.4L124.3,12.3c-0.1-0.1-0.2-0.1-0.4-0.2c-0.1-0.1-0.2-0.1-0.4-0.2
		c-0.1-0.1-0.2-0.1-0.4-0.2c-0.1,0-0.3-0.1-0.4-0.1c-0.1,0-0.1,0-0.2-0.1c0,0-0.1,0-0.1,0c0,0,0,0,0,0c0,0,0,0,0,0c0,0,0,0,0,0
		c0,0,0,0,0,0c0,0,0,0,0,0c0,0-0.1,0-0.1,0c-0.1,0-0.3,0-0.4-0.1c0,0-0.1,0-0.1,0c0,0-0.1,0-0.1,0c0,0-0.1,0-0.1,0c0,0,0,0-0.1,0
		c-0.1,0-0.1,0-0.2,0c-0.1,0-0.1,0-0.2,0c0,0,0,0-0.1,0c0,0-0.1,0-0.1,0c0,0-0.1,0-0.1,0c-0.1,0-0.1,0-0.1,0c-0.1,0-0.3,0-0.4,0.1
		c0,0-0.1,0-0.1,0c0,0,0,0,0,0c0,0,0,0,0,0c0,0,0,0,0,0c0,0,0,0,0,0c0,0,0,0,0,0c-0.1,0-0.1,0-0.1,0c-0.1,0-0.1,0-0.2,0.1
		c-0.1,0-0.3,0.1-0.4,0.1c-0.1,0-0.2,0.1-0.4,0.2c-0.1,0.1-0.2,0.1-0.4,0.2c-0.1,0.1-0.2,0.1-0.4,0.2L13.9,80.4
		c-0.6,0.4-1.1,0.9-1.5,1.4c0,0.1-0.1,0.1-0.1,0.2c0,0.1-0.1,0.1-0.1,0.2c-1.1,1.9-1,4.3,0.3,6.1c0.4,0.5,0.8,0.9,1.4,1.3l22,14.4
		l0,0l6.2,4.1l31.5,20.6l39.1,25.6l0.5,0.4c2.3,1.5,5.1,2.4,7.9,2.4c0,0,0,0,0.1,0c0.1,0,0.2,0,0.4,0c2.8-0.1,5.5-1,7.9-2.5l0.4-0.3
		l35.4-23.1l35.2-23l6.2-4.1l0,0l22-14.4c1.1-0.7,1.9-1.8,2.3-3c0.1-0.3,0.2-0.6,0.2-1c0-0.2,0-0.4,0-0.7v0c0-0.2,0-0.4,0-0.6
		C230.9,82.9,230.1,81.4,228.6,80.4z" fill="#2f2f2f" />
	<path id="XMLID_33_" d="M241.7,90c0.3-1,0.5-1.9,0.6-2.9l0,0l0,0c0.1-0.7,0.1-1.3,0.1-2v0c0-0.6,0-1.3-0.1-1.9
		c-0.6-5-3.3-9.5-7.5-12.2L130.5,2.8c-0.3-0.2-0.7-0.4-1.1-0.6c-0.4-0.2-0.7-0.4-1.1-0.6l0,0l0,0c-0.4-0.2-0.8-0.3-1.1-0.5
		c-0.4-0.1-0.7-0.3-1.1-0.4c-0.2-0.1-0.4-0.1-0.7-0.2c-0.1,0-0.2-0.1-0.4-0.1c0,0,0,0,0,0c-0.1,0-0.2,0-0.3-0.1c-0.1,0-0.1,0-0.2,0
		c-0.1,0-0.2,0-0.3-0.1l0,0l0,0c-0.4-0.1-0.8-0.1-1.1-0.2c-0.1,0-0.3,0-0.4,0c-0.1,0-0.1,0-0.2,0l-0.2,0L122,0c0,0,0,0-0.1,0l0,0
		l-0.1,0l-0.1,0c-0.2,0-0.3,0-0.5,0c-0.1,0-0.3,0-0.4,0c-0.1,0-0.3,0-0.4,0l-0.2,0L120,0l-0.1,0c-0.2,0-0.3,0-0.5,0
		c-0.4,0-0.7,0.1-1.1,0.2l0,0l0,0c-0.1,0-0.2,0-0.3,0.1c-0.1,0-0.1,0-0.2,0c-0.1,0-0.2,0-0.3,0.1l0,0c0,0,0,0,0,0
		c-0.1,0-0.3,0.1-0.3,0.1c-0.2,0.1-0.4,0.1-0.7,0.2c-0.4,0.1-0.7,0.2-1.1,0.4c-0.4,0.1-0.7,0.3-1.1,0.5l0,0l0,0
		c-0.4,0.2-0.7,0.4-1.1,0.6c-0.4,0.2-0.7,0.4-1.1,0.6L7.6,70.9c-1.8,1.2-3.3,2.6-4.6,4.4l0,0l0,0c-0.1,0.2-0.3,0.4-0.4,0.6
		c-0.1,0.2-0.3,0.4-0.4,0.6C0.6,79.4-0.2,82.6,0,86c0.2,3.4,1.3,6.6,3.3,9.2c1.2,1.6,2.6,2.9,4.3,4l0,0l0,0l17.8,11.6L7.6,122.5
		c-1.8,1.2-3.3,2.6-4.6,4.4l0,0l0,0c-0.1,0.2-0.3,0.4-0.4,0.6c-0.1,0.2-0.3,0.4-0.4,0.6c-1.7,2.9-2.5,6.1-2.3,9.5
		c0.2,3.4,1.3,6.6,3.3,9.2c1.2,1.6,2.6,2.9,4.3,4l17.8,11.6L7.6,174c-1.8,1.2-3.3,2.6-4.5,4.4c-0.1,0.2-0.3,0.4-0.4,0.6
		c-0.1,0.2-0.3,0.4-0.4,0.6c-1.7,2.9-2.5,6.1-2.3,9.4c0.2,3.4,1.3,6.6,3.3,9.2c1.2,1.6,2.6,2.9,4.3,4l0,0l0,0l98.9,64.6l0.7,0.4
		c4.2,2.7,8.9,4.2,13.8,4.2l0.1,0l0.1,0h0h0c5,0,9.9-1.5,14.1-4.3l0.5-0.3l98.9-64.6c3.3-2.2,5.8-5.4,6.9-9.2c0.3-1,0.5-1.9,0.6-2.9
		l0,0l0,0c0.1-0.7,0.1-1.3,0.1-2v0c0-0.6,0-1.3-0.1-1.9c-0.6-5-3.3-9.5-7.6-12.2L217,162.4l17.8-11.6c3.3-2.2,5.8-5.4,6.9-9.2
		c0.3-1,0.5-1.9,0.6-2.9l0,0l0,0c0.1-0.7,0.1-1.3,0.1-2v0c0-0.6,0-1.3-0.1-1.9c-0.6-5-3.3-9.5-7.5-12.2L217,110.8l17.8-11.6
		C238.1,97.1,240.6,93.8,241.7,90z M231.1,187.5c0,0.2,0,0.4,0,0.6v0c0,0.2,0,0.4,0,0.7c0,0.3-0.1,0.7-0.2,1c-0.4,1.2-1.1,2.2-2.3,3
		l-98.9,64.6l-0.5,0.3c-2.4,1.5-5.1,2.4-7.9,2.4c0,0,0,0-0.1,0c0,0,0,0-0.1,0c-2.7,0-5.4-0.8-7.6-2.3c-0.4-0.3-0.7-0.4-0.7-0.4
		l-98.9-64.6c-0.6-0.4-1-0.8-1.4-1.3c-1.3-1.8-1.4-4.2-0.3-6.1c0-0.1,0.1-0.1,0.1-0.2c0-0.1,0.1-0.1,0.1-0.2c0.4-0.5,0.9-1,1.5-1.4
		l22-14.4l76.2,49.7c2.8,1.8,6,2.8,9.2,2.8c3.3,0,6.5-1,9.2-2.8l76.2-49.7l22,14.4C230.1,184.5,230.9,186,231.1,187.5z M228.6,132
		c1.5,1,2.3,2.4,2.5,4c0,0.2,0,0.4,0,0.6v0c0,0.2,0,0.4,0,0.7c0,0.3-0.1,0.7-0.2,1c-0.4,1.2-1.1,2.2-2.3,3l-98.5,64.4l-0.1,0.1
		c-2.5,1.6-5.4,2.6-8.4,2.7c-0.1,0-0.2,0-0.4,0c-0.1,0-0.3,0-0.4,0c-2.9-0.1-5.7-1-8.1-2.6l-0.3-0.2l-98.5-64.4
		c-0.6-0.4-1-0.8-1.4-1.3c-1.3-1.8-1.4-4.2-0.3-6.1c0-0.1,0.1-0.1,0.1-0.2c0-0.1,0.1-0.1,0.1-0.2c0.4-0.5,0.9-1,1.5-1.4l22-14.4
		l31.5,20.6l44.6,29.1c2.8,1.8,6,2.8,9.2,2.8c3.3,0,6.5-1,9.2-2.8l44.1-28.8l32-20.9L228.6,132z M231.1,85.1c0,0.2,0,0.4,0,0.7
		c0,0.3-0.1,0.7-0.2,1c-0.4,1.2-1.1,2.2-2.3,3l-22,14.4l0,0l-6.2,4.1l-35.2,23l-35.4,23.1l-0.4,0.3c-2.4,1.5-5.1,2.4-7.9,2.5
		c-0.1,0-0.2,0-0.4,0c0,0,0,0-0.1,0c-2.8,0-5.5-0.9-7.9-2.4l-0.5-0.4l-39.1-25.6l-31.5-20.6l-6.2-4.1l0,0l-22-14.4
		c-0.6-0.4-1-0.8-1.4-1.3c-1.3-1.8-1.4-4.2-0.3-6.1c0-0.1,0.1-0.1,0.1-0.2c0-0.1,0.1-0.1,0.1-0.2c0.4-0.5,0.9-1,1.5-1.4l104.4-68.2
		c0.1-0.1,0.2-0.1,0.4-0.2c0.1-0.1,0.2-0.1,0.4-0.2c0.1-0.1,0.2-0.1,0.4-0.2c0.1,0,0.3-0.1,0.4-0.1c0.1,0,0.1,0,0.2-0.1
		c0,0,0.1,0,0.1,0c0,0,0,0,0,0c0,0,0,0,0,0c0,0,0,0,0,0c0,0,0,0,0,0c0,0,0,0,0,0c0,0,0.1,0,0.1,0c0.1,0,0.3,0,0.4-0.1
		c0,0,0.1,0,0.1,0c0,0,0.1,0,0.1,0c0,0,0.1,0,0.1,0c0,0,0.1,0,0.1,0c0.1,0,0.1,0,0.2,0c0.1,0,0.1,0,0.2,0c0,0,0.1,0,0.1,0
		c0,0,0.1,0,0.1,0c0,0,0.1,0,0.1,0c0.1,0,0.1,0,0.1,0c0.1,0,0.3,0,0.4,0.1c0,0,0.1,0,0.1,0c0,0,0,0,0,0c0,0,0,0,0,0c0,0,0,0,0,0
		c0,0,0,0,0,0c0,0,0,0,0,0c0.1,0,0.1,0,0.1,0c0.1,0,0.1,0,0.2,0.1c0.1,0,0.3,0.1,0.4,0.1c0.1,0,0.2,0.1,0.4,0.2
		c0.1,0.1,0.2,0.1,0.4,0.2c0.1,0.1,0.2,0.1,0.4,0.2l104.4,68.2c1.5,1,2.3,2.4,2.5,4C231.1,84.6,231.1,84.8,231.1,85.1L231.1,85.1z"
		fill="#ffffff" />
</g>
</svg>
