<?xml version="1.0" encoding="utf-8"?>
<!-- Generator: Adobe Illustrator 24.0.0, SVG Export Plug-In . SVG Version: 6.00 Build 0)  -->
<svg version="1.1" id="Layer_1" xmlns="http://www.w3.org/2000/svg" xmlns:xlink="http://www.w3.org/1999/xlink" x="0px" y="0px"
	 viewBox="0 0 190 291" style="enable-background:new 0 0 190 291;" xml:space="preserve" width="512px" height="512px">
<g>
	<path d="M160.4,0H29.6C13.3,0,0,12.4,0,27.6v197.5c0,15.2,13.3,27.6,29.6,27.6h130.8c16.3,0,29.6-12.4,29.6-27.6V27.6
		C190,12.4,176.7,0,160.4,0z M176.5,225.1c0,8.3-7.3,15-16.1,15H29.6c-8.9,0-16.1-6.8-16.1-15V27.6c0-8.3,7.3-15,16.1-15h130.8
		c8.9,0,16.1,6.8,16.1,15V225.1z" fill="#ffffff"/>
	<path d="M96.1,97c-11.8,0-22.9,4.6-31.3,13c-8.4,8.4-13.1,19.5-13.1,31.3c0,2.7,2.2,5,5,5c0,0,0,0,0,0c2.7,0,5-2.2,5-5
		c0-19,15.5-34.4,34.4-34.4c19,0,34.4,15.4,34.4,34.4c0,2.7,2.2,5,5,5c2.7,0,5-2.2,5-5c0-11.8-4.6-22.9-13-31.3
		C119,101.6,107.9,97,96.1,97z" fill="#ffffff"/>
	<path d="M117.1,124.2l-18.5,14c-0.2,0.2-0.4,0.4-0.6,0.6c-0.6-0.2-1.2-0.3-1.8-0.3c-1.9,0-3.7,0.7-5,2c-1.4,1.3-2.1,3.1-2.2,4.9
		c0,1.9,0.7,3.7,2,5c1.3,1.4,3.1,2.1,4.9,2.2c0,0,0.1,0,0.1,0c1.8,0,3.6-0.7,4.9-2c1.9-1.8,2.5-4.4,1.9-6.8c0.2-0.1,0.4-0.3,0.6-0.5
		l14.7-17.9C118.9,124.7,117.9,123.6,117.1,124.2z M98.7,148.3c-0.7,0.7-1.7,1.1-2.7,1c-1,0-1.9-0.4-2.6-1.1c-0.7-0.7-1.1-1.7-1-2.7
		c0-1,0.4-1.9,1.1-2.6v0c0.7-0.7,1.6-1,2.6-1c0,0,0,0,0.1,0c1,0,1.9,0.4,2.6,1.1l0,0C100.2,144.5,100.2,146.9,98.7,148.3z" fill="#ffffff"/>
	<path d="M45.9,257.2H33.2c-2,0-3.6,1.6-3.6,3.6v26.6c0,2,1.6,3.6,3.6,3.6h12.7c2,0,3.6-1.6,3.6-3.6v-26.6
		C49.5,258.8,47.9,257.2,45.9,257.2z" fill="#ffffff"/>
	<path d="M156.8,257.2h-12.7c-2,0-3.6,1.6-3.6,3.6v26.6c0,2,1.6,3.6,3.6,3.6h12.7c2,0,3.6-1.6,3.6-3.6v-26.6
		C160.3,258.8,158.7,257.2,156.8,257.2z" fill="#ffffff" />
</g>
</svg>
