<?xml version="1.0" encoding="utf-8"?>
<!-- Generator: Adobe Illustrator 24.0.0, SVG Export Plug-In . SVG Version: 6.00 Build 0)  -->
<svg version="1.1" id="Layer_1" xmlns="http://www.w3.org/2000/svg" xmlns:xlink="http://www.w3.org/1999/xlink" x="0px" y="0px"
	 viewBox="0 0 207.3 211.3" style="enable-background:new 0 0 207.3 211.3;" xml:space="preserve">
<style type="text/css">
	.st0{stroke:#ffffff;stroke-width:3.0195;stroke-miterlimit:10;}
	.st1{stroke:#ffffff;stroke-width:3;stroke-miterlimit:10;}
</style>
<g>
	<path d="M-0.4,42.5c0-42.6,0,41,0-1.6c0-14.5,6.8-21.3,21.3-21.3c55,0,110,0,165.1,0c14.6,0,21.3,6.7,21.3,21.2
		c0,85.4,0,44.6,0,130c0,14-6.9,20.9-21,20.9c-55.2,0-110.5,0-165.7,0c-14.1,0-21-6.9-21-20.9C-0.4,128-0.4,85.2-0.4,42.5z M9.1,42
		c0,42.3,0,84.7,0,127c0,11,2.2,13.3,13.3,13.3c54.1,0,108.3,0,162.4,0c10.6,0,13.1-2.4,13.1-12.8c0-84.5,0-42.8,0-127.3
		c0-11-2.2-13.3-13.3-13.3c-54.1,0-108.3,0-162.4,0C11.5,29,9.1,31.3,9.1,41.8C9.1,83.9,9.1-0.1,9.1,42z" fill="#ffffff" />
	<path d="M188.5,42.6c0,40.6,0,81.2,0,121.8c0,7.9-0.8,8.7-9,8.7c-50.3,0-100.7,0-151,0c-9.6,0-9.9-0.3-9.9-9.7
		c0-80.8,0-35.4,0-116.2c0-8.4,0.7-9,9.3-9c50.6,0,101.1,0,151.8,0c8.2,0,8.9,0.7,8.9,8.7C188.5,87.5,188.5,2,188.5,42.6L188.5,42.6
		z M28.4,47.9c0,80.9,0,35.1,0,115.3c50.4,0,100.4,0,150.1,0c0-80.7,0-34.8,0-115.3C128.5,47.9,78.8,47.9,28.4,47.9z" fill="#ffffff" />
	<path class="st0" d="M61.2,148l-0.3-0.2c-1.3-1.2-1.3-3.3-0.1-4.5c26.8-26.4,53.5-52.5,80.7-79.3c1.3-1.3,3.5-1.2,4.8,0.3l0.1,0.1
		c1,1.2,0.9,3-0.2,4.2L65.7,148C64.5,149.1,62.5,149.1,61.2,148z" fill="#ffffff" />
	<path class="st0" d="M122.9,63.9c-14.2,14-28.3,27.9-42.9,42.2c-1.3,1.3-3.3,1.2-4.6-0.1l-0.6-0.6c-1.1-1.3-1.1-3.2,0.1-4.3
		c14.2-14,28.3-27.8,43-42.1c1.3-1.3,3.4-1.2,4.7,0.2l0.5,0.6C124.1,60.9,124,62.8,122.9,63.9z" fill="#ffffff" />
	<path class="st0" d="M84.2,152.1L84.2,152.1c-1.3-1.3-1.3-3.3-0.1-4.5c12.8-12.7,25.2-25,38-37.6c1.2-1.2,3.2-1.2,4.5-0.1l0.5,0.5
		c1.3,1.2,1.3,3.3,0,4.5c-12.8,12.3-25.3,24.4-38.5,37.2C87.5,153.3,85.6,153.3,84.2,152.1z" fill="#ffffff" />
</g>
<path class="st1" d="M200.9,209.7H6.1c-2.6,0-4.8-2.1-4.8-4.8v0c0-2.6,2.1-4.8,4.8-4.8h194.8c2.6,0,4.8,2.1,4.8,4.8v0
	C205.7,207.6,203.5,209.7,200.9,209.7z" fill="#ffffff" />
<path class="st1" d="M200.9,11.2H6.1c-2.6,0-4.8-2.1-4.8-4.8v0c0-2.6,2.1-4.8,4.8-4.8h194.8c2.6,0,4.8,2.1,4.8,4.8v0
	C205.7,9,203.5,11.2,200.9,11.2z" fill="#ffffff" />
</svg>
