<?xml version="1.0" encoding="utf-8"?>
<!-- Generator: Adobe Illustrator 24.0.0, SVG Export Plug-In . SVG Version: 6.00 Build 0)  -->
<svg version="1.1" id="Layer_1" xmlns="http://www.w3.org/2000/svg" xmlns:xlink="http://www.w3.org/1999/xlink" x="0px" y="0px"
	 viewBox="0 0 242.4 242.4" style="enable-background:new 0 0 242.4 242.4;" xml:space="preserve" width="512px" height="512px">
<path d="M219.2,143.6c-1.8-1.8-4-3.1-6.3-3.8l24.8-24.8c3-3,4.6-6.9,4.6-11.1s-1.6-8.2-4.6-11.1l-18.6-18.6
	c-1.8-1.8-3.9-3.1-6.3-3.8l24.8-24.8c6.1-6.1,6.1-16.1,0-22.3L219.2,4.6c-6.1-6.1-16.1-6.1-22.3,0l-24.8,24.8
	c-0.7-2.3-2-4.4-3.8-6.3L149.7,4.6v0c-6.1-6.1-16.1-6.1-22.3,0l-24.8,24.8c-0.8-2.3-2-4.5-3.8-6.3L80.2,4.6
	c-6.1-6.1-16.1-6.1-22.3,0L4.6,57.9c-3,3-4.6,6.9-4.6,11.1c0,4.2,1.6,8.2,4.6,11.1l18.6,18.6c1.8,1.8,4,3.1,6.3,3.8L4.6,127.4
	c-3,3-4.6,6.9-4.6,11.1c0,4.2,1.6,8.2,4.6,11.1l18.6,18.6c1.8,1.8,4,3.1,6.3,3.8L4.6,196.9c-3,3-4.6,6.9-4.6,11.1
	c0,4.2,1.6,8.2,4.6,11.1l18.6,18.6c3,3,6.9,4.6,11.1,4.6c4.2,0,8.2-1.6,11.1-4.6l24.8-24.8c0.8,2.3,2,4.5,3.8,6.3l18.6,18.6
	c3,3,6.9,4.6,11.1,4.6c4.2,0,8.2-1.6,11.1-4.6l24.8-24.8c0.7,2.3,2,4.4,3.8,6.3l18.6,18.6c3,3,6.9,4.6,11.1,4.6c0,0,0,0,0,0
	c4.2,0,8.2-1.6,11.1-4.6l53.3-53.3c3-3,4.6-6.9,4.6-11.1c0-4.2-1.6-8.2-4.6-11.1L219.2,143.6z M208.1,78.1c1.9,0,3.7,0.7,5,2.1
	l18.6,18.6c1.3,1.3,2.1,3.1,2.1,5s-0.7,3.7-2.1,5l-34.7,34.7c0,0,0,0,0,0l-18.6,18.6c-2.8,2.8-7.3,2.8-10.1,0l-18.6-18.6
	c-1.3-1.3-2.1-3.1-2.1-5c0-1.9,0.7-3.7,2.1-5l18.6-18.6l16.2-16.2L203,80.2C204.4,78.8,206.2,78.1,208.1,78.1z M127.4,143.6
	l-18.6,18.6c-2.8,2.8-7.3,2.8-10.1,0l-18.6-18.6c-1.3-1.3-2.1-3.1-2.1-5s0.7-3.7,2.1-5l34.7-34.7c0,0,0,0,0,0l18.6-18.6
	c1.3-1.3,3.1-2.1,5-2.1c1.9,0,3.7,0.7,5,2.1l18.6,18.6c2.8,2.8,2.8,7.3,0,10.1l-18.6,18.6L127.4,143.6
	C127.4,143.6,127.4,143.6,127.4,143.6z M203,10.7c1.4-1.4,3.2-2.1,5-2.1c1.8,0,3.7,0.7,5,2.1l18.6,18.6c2.8,2.8,2.8,7.3,0,10.1
	l-34.7,34.7c0,0,0,0,0,0l-18.6,18.6c-1.3,1.3-3.1,2.1-5,2.1c-1.9,0-3.7-0.7-5-2.1l-18.6-18.6c-1.3-1.3-2.1-3.1-2.1-5s0.7-3.7,2.1-5
	L203,10.7z M133.5,10.7c1.4-1.4,3.2-2.1,5-2.1c1.8,0,3.7,0.7,5,2.1l18.6,18.6c2.8,2.8,2.8,7.3,0,10.1l-18.6,18.6l-16.2,16.2
	c0,0,0,0,0,0l-18.6,18.6c-1.3,1.3-3.1,2.1-5,2.1c-1.9,0-3.7-0.7-5-2.1L80.2,74.1c-1.3-1.3-2.1-3.1-2.1-5c0-1.9,0.7-3.7,2.1-5
	l18.6-18.6L133.5,10.7z M39.4,92.7c-2.8,2.8-7.3,2.8-10.1,0L10.7,74.1c-1.3-1.3-2.1-3.1-2.1-5c0-1.9,0.7-3.7,2.1-5L64,10.7
	c2.8-2.8,7.3-2.8,10.1,0l18.6,18.6c2.8,2.8,2.8,7.3,0,10.1L74.1,57.9L39.4,92.7z M29.3,162.2l-18.6-18.6c-1.3-1.3-2.1-3.1-2.1-5
	s0.7-3.7,2.1-5L64,80.2c1.3-1.3,3.1-2.1,5-2.1s3.7,0.7,5,2.1l18.6,18.6c2.8,2.8,2.8,7.3,0,10.1l-34.7,34.7c0,0,0,0,0,0l-18.6,18.6
	C36.6,164.9,32.1,164.9,29.3,162.2z M39.4,231.7c-1.3,1.3-3.1,2.1-5,2.1c-1.9,0-3.7-0.7-5-2.1l-18.6-18.6c-1.3-1.3-2.1-3.1-2.1-5
	c0-1.9,0.7-3.7,2.1-5l34.7-34.7c0,0,0,0,0,0L64,149.7c1.4-1.4,3.2-2.1,5-2.1c1.8,0,3.7,0.7,5,2.1l18.6,18.6c2.8,2.8,2.8,7.3,0,10.1
	l-18.1,18.1L39.4,231.7z M108.9,231.7c-1.3,1.3-3.1,2.1-5,2.1s-3.7-0.7-5-2.1l-18.6-18.6c-1.3-1.3-2.1-3.1-2.1-5
	c0-1.9,0.7-3.7,2.1-5l18.6-18.6c0,0,0,0,0,0l16.2-16.2c0,0,0,0,0,0l18.6-18.6c1.4-1.4,3.2-2.1,5-2.1c1.8,0,3.7,0.7,5,2.1l18.6,18.6
	c2.8,2.8,2.8,7.3,0,10.1l-18.6,18.6c0,0,0,0,0,0L108.9,231.7z M231.7,178.3l-53.3,53.3c-1.3,1.3-3.1,2.1-5,2.1h0
	c-1.9,0-3.7-0.7-5-2.1l-18.6-18.6c-2.8-2.8-2.8-7.3,0-10.1l18.6-18.6c0,0,0,0,0,0l16.2-16.2c0,0,0,0,0,0l18.6-18.6
	c1.4-1.4,3.2-2.1,5-2.1c1.8,0,3.7,0.7,5,2.1l18.6,18.6c1.3,1.3,2.1,3.1,2.1,5C233.8,175.2,233,177,231.7,178.3z" fill="#ffffff" />
</svg>
