<?xml version="1.0"?>
<svg xmlns="http://www.w3.org/2000/svg" xmlns:xlink="http://www.w3.org/1999/xlink" version="1.1" id="Capa_1" x="0px" y="0px" viewBox="0 0 512 512" style="enable-background:new 0 0 512 512;" xml:space="preserve" width="512px" height="512px" class=""><g><g>
	<g>
		<path d="M476.177,0H35.823c-8.285,0-15.003,6.717-15.003,15.003s6.717,15.003,15.003,15.003h8.512v228.268    c0,13.346,9.947,24.406,22.816,26.172v149.661c-17.507,3.737-30.679,19.318-30.679,37.924v1.188    c0,21.384,17.397,38.781,38.781,38.781h361.495c21.384,0,38.781-17.398,38.781-38.781v-1.188    c0-18.606-13.172-34.188-30.679-37.924V284.595c13.52-1.146,24.175-12.51,24.175-26.323V30.005h7.152    c8.285,0,15.003-6.717,15.003-15.003S484.462,0,476.177,0z M74.341,30.005H439.02v35.744H74.341V30.005z M74.341,95.754H439.02    v34.676H74.341V95.754z M74.341,160.436H439.02v32.57H74.341V160.436z M74.341,223.01H439.02v31.682H74.341V223.01z     M144.615,412.964h76.91c13.715,0,24.873-11.158,24.873-24.873v-80.952c0-0.031,0-0.062,0-0.093v-22.35h22.473v103.395    c0,13.715,11.158,24.873,24.873,24.873h76.91c13.715,0,24.873-11.158,24.873-24.873v-67.356c0-0.014,0-0.028,0-0.042v-35.995    h19.316v148.55H97.156v-148.55h22.586v73.106c0,0.031,0,0.062,0,0.093v30.194C119.741,401.806,130.899,412.964,144.615,412.964z     M216.393,297.902l-66.647,35.207v-48.411h66.647V297.902z M216.394,331.835v51.125h-66.647v-15.918L216.394,331.835z     M298.876,349.771v-65.074h66.647v27.495L298.876,349.771z M365.523,346.64v36.321h-64.416L365.523,346.64z M445.524,472.031    v1.188h0c0,4.839-3.938,8.776-8.776,8.776H75.253c-4.839,0-8.776-3.938-8.776-8.776v-1.188c0-4.84,3.937-8.776,8.776-8.776    h361.495C441.587,463.255,445.524,467.192,445.524,472.031z" data-original="#000000" class="active-path" data-old_color="#000000" fill="#FFFFFF"/>
	</g>
</g></g> </svg>
