<?xml version="1.0" encoding="utf-8"?>
<!-- Generator: Adobe Illustrator 24.0.0, SVG Export Plug-In . SVG Version: 6.00 Build 0)  -->
<svg version="1.1" id="Layer_1" xmlns="http://www.w3.org/2000/svg" xmlns:xlink="http://www.w3.org/1999/xlink" x="0px" y="0px"
	 viewBox="0 0 329.6 312.4" style="enable-background:new 0 0 329.6 312.4;" xml:space="preserve" width="512px" height="512px">
<path d="M329.6,110.2V88l-56.5,56.5c-1.9,1.9-5,1.9-6.9,0l-89.8-89.8c-1.9-1.9-1.9-5,0-6.9L224.4,0h-22.2l-36.8,36.8
	c-1.9,1.9-5,1.9-6.9,0L121.8,0H99.6l47.9,47.9c1.9,1.9,1.9,5,0,6.9l-84.1,84.1c-1.9,1.9-5,1.9-6.9,0L0,82.4v22.2L45.4,150
	c1.9,1.9,1.9,5,0,6.9L0,202.2v22.2l56.5-56.5c1.9-1.9,5-1.9,6.9,0l89.8,89.8c1.9,1.9,1.9,5,0,6.9l-47.9,47.9h22.2l36.8-36.8
	c1.9-1.9,5-1.9,6.9,0l36.8,36.8H230l-47.9-47.9c-1.9-1.9-1.9-5,0-6.9l84.1-84.1c1.9-1.9,5-1.9,6.9,0l56.5,56.5v-22.2l-45.4-45.4
	c-1.9-1.9-1.9-5,0-6.9L329.6,110.2z M255.2,162.4L171,246.6c-1.9,1.9-5,1.9-6.9,0l-89.7-89.7c-1.9-1.9-1.9-5,0-6.9l84.1-84.1
	c1.9-1.9,5-1.9,6.9,0l89.7,89.7C257.1,157.5,257.1,160.6,255.2,162.4z" fill="#ffffff"/>
</svg>
