<?xml version="1.0" encoding="utf-8"?>
<!-- Generator: Adobe Illustrator 24.0.0, SVG Export Plug-In . SVG Version: 6.00 Build 0)  -->
<svg version="1.1" id="Layer_1" xmlns="http://www.w3.org/2000/svg" xmlns:xlink="http://www.w3.org/1999/xlink" x="0px" y="0px"
	 viewBox="0 0 253 291" style="enable-background:new 0 0 253 291;" xml:space="preserve" width="512px" height="512px">
<path d="M247.8,0H216c-2.9,0-5.2,2.3-5.2,5.2c0-2.9-2.3-5.2-5.2-5.2h-31.8c-2.9,0-5.2,2.3-5.2,5.2c0-2.9-2.3-5.2-5.2-5.2h-31.8
	c-2.9,0-5.2,2.3-5.2,5.2c0-2.9-2.3-5.2-5.2-5.2H89.5c-2.9,0-5.2,2.3-5.2,5.2C84.3,2.3,82,0,79.1,0H47.3c-2.9,0-5.2,2.3-5.2,5.2
	C42.2,2.3,39.8,0,37,0H5.2C2.3,0,0,2.3,0,5.2v6.6C0,14.7,2.3,17,5.2,17h12.5v10.9H5.8c-1.6,0-2.9,1.3-2.9,2.9v1
	c0,1.6,1.3,2.9,2.9,2.9h11.9v8.7H5.8c-1.6,0-2.9,1.3-2.9,2.9v1c0,1.6,1.3,2.9,2.9,2.9h11.9v11.1H13c-5.5,0-10.1,4.5-10.1,10.1v209.7
	c0,5.5,4.5,10.1,10.1,10.1h16.2c5.5,0,10.1-4.5,10.1-10.1V71.2c0-5.5-4.5-10.1-10.1-10.1h-4.8V50h14.8v-6.7H24.4v-8.7h14.8v-6.7
	H24.4V17H37c2.9,0,5.2-2.3,5.2-5.2c0,2.9,2.3,5.2,5.2,5.2h12.5v10.9H45.1v6.7h14.8v8.7H45.1V50h14.8v11.1h-4.8
	c-5.5,0-10.1,4.5-10.1,10.1v209.7c0,5.5,4.5,10.1,10.1,10.1h16.2c5.5,0,10.1-4.5,10.1-10.1V71.2c0-5.5-4.5-10.1-10.1-10.1h-4.8V50
	h14.8v-6.7H66.6v-8.7h14.8v-6.7H66.6V17h12.5c2.9,0,5.2-2.3,5.2-5.2c0,2.9,2.3,5.2,5.2,5.2h12.5v10.9H87.2v6.7h14.8v8.7H87.2V50
	h14.8v11.1h-4.8c-5.5,0-10.1,4.5-10.1,10.1v209.7c0,5.5,4.5,10.1,10.1,10.1h16.2c5.5,0,10.1-4.5,10.1-10.1V71.2
	c0-5.5-4.5-10.1-10.1-10.1h-4.8V50h14.8v-6.7h-14.8v-8.7h14.8v-6.7h-14.8V17h12.5c2.9,0,5.2-2.3,5.2-5.2c0,2.9,2.3,5.2,5.2,5.2h12.5
	v10.9h-14.8v6.7h14.8v8.7h-14.8V50h14.8v11.1h-4.8c-5.5,0-10.1,4.5-10.1,10.1v209.7c0,5.5,4.5,10.1,10.1,10.1h16.2
	c5.5,0,10.1-4.5,10.1-10.1V71.2c0-5.5-4.5-10.1-10.1-10.1h-4.8V50h14.8v-6.7h-14.8v-8.7h14.8v-6.7h-14.8V17h12.5
	c2.9,0,5.2-2.3,5.2-5.2c0,2.9,2.3,5.2,5.2,5.2h12.5v10.9h-14.8v6.7h14.8v8.7h-14.8V50h14.8v11.1h-4.8c-5.5,0-10.1,4.5-10.1,10.1
	v209.7c0,5.5,4.5,10.1,10.1,10.1h16.2c5.5,0,10.1-4.5,10.1-10.1V71.2c0-5.5-4.5-10.1-10.1-10.1h-4.8V50h14.8v-6.7h-14.8v-8.7h14.8
	v-6.7h-14.8V17h12.5c2.9,0,5.2-2.3,5.2-5.2c0,2.9,2.3,5.2,5.2,5.2h12.5v10.9h-14.8v6.7h14.8v8.7h-14.8V50h14.8v11.1h-4.8
	c-5.5,0-10.1,4.5-10.1,10.1v209.7c0,5.5,4.5,10.1,10.1,10.1H240c5.5,0,10.1-4.5,10.1-10.1V71.2c0-5.5-4.5-10.1-10.1-10.1h-4.8V50
	h11.9c1.6,0,3-1.3,3-3v-0.8c0-1.6-1.3-3-3-3h-11.9v-8.7h11.9c1.6,0,3-1.3,3-3v-0.8c0-1.6-1.3-3-3-3h-11.9V17h12.5
	c2.9,0,5.2-2.3,5.2-5.2V5.2C253,2.3,250.6,0,247.8,0z" fill="#ffffff" />
</svg>
