<?xml version="1.0"?>
<svg xmlns="http://www.w3.org/2000/svg" xmlns:xlink="http://www.w3.org/1999/xlink" xmlns:svgjs="http://svgjs.com/svgjs" version="1.1" width="512" height="512" x="0" y="0" viewBox="0 0 512 512" style="enable-background:new 0 0 512 512" xml:space="preserve" class=""><g>
<g xmlns="http://www.w3.org/2000/svg" id="XMLID_1193_">
	<g id="XMLID_917_">
		<path id="XMLID_946_" d="M183.649,20c2.631,0,5.21-1.07,7.07-2.93c1.87-1.86,2.93-4.44,2.93-7.07c0-2.63-1.06-5.21-2.93-7.07    c-1.86-1.86-4.439-2.93-7.07-2.93c-2.63,0-5.21,1.07-7.069,2.93c-1.86,1.86-2.931,4.44-2.931,7.07c0,2.63,1.07,5.21,2.931,7.07    C178.439,18.93,181.02,20,183.649,20z" fill="#ffffff" data-original="#000000" style="" class=""/>
		<path id="XMLID_950_" d="M491.99,212.609c-0.003-3.096-1.428-6.147-4.128-8.1l-45.472-32.902V10c0-5.523-4.478-10-10-10H223.652    c-5.522,0-10,4.477-10,10s4.478,10,10,10h198.738v228.37l-111.36,90.922l-27.626-19.989c-16.393-11.859-38.416-11.859-54.809,0    l-27.625,19.989L89.609,248.369V20h54.043c5.522,0,10-4.477,10-10s-4.478-10-10-10H79.609c-5.522,0-10,4.477-10,10v161.606    l-45.472,32.902c-2.699,1.953-4.124,5.002-4.128,8.097c-0.003,0.002-0.006,0.003-0.01,0.005v252.642    C20,491.029,40.971,512,66.748,512h378.504C471.029,512,492,491.029,492,465.252V212.61    C491.997,212.61,491.994,212.609,491.99,212.609z M442.391,196.293l23.212,16.796l-23.212,18.952V196.293z M472,233.684v222.081    L327.795,351.423L472,233.684z M40,233.684l144.205,117.739L40,455.766V233.684z M69.609,232.04l-23.212-18.952l23.212-16.795    V232.04z M445.252,492H66.748c-10.104,0-18.917-5.633-23.466-13.923L240.32,335.506c9.378-6.787,21.981-6.786,31.359,0    l155.335,112.396H335.9c-5.522,0-10,4.478-10,10s4.478,10,10,10h118.755l14.062,10.175C464.169,486.367,455.357,492,445.252,492z" fill="#ffffff" data-original="#000000" style="" class=""/>
		<path id="XMLID_1016_" d="M244.747,149.359c1.953,1.953,4.512,2.929,7.071,2.929s5.118-0.977,7.071-2.929l32.349-32.349    c3.905-3.905,3.905-10.237,0-14.142c-3.906-3.905-10.236-3.905-14.143,0l-25.277,25.278l-9.218-9.217    c-3.906-3.905-10.238-3.905-14.143,0c-3.905,3.905-3.905,10.237,0,14.142L244.747,149.359z" fill="#ffffff" data-original="#000000" style="" class=""/>
		<path id="XMLID_1032_" d="M256,212c47.421,0,86-38.58,86-86s-38.579-86-86-86s-86,38.58-86,86S208.579,212,256,212z M256,60    c36.393,0,66,29.607,66,66s-29.607,66-66,66s-66-29.607-66-66S219.607,60,256,60z" fill="#ffffff" data-original="#000000" style="" class=""/>
		<path id="XMLID_1035_" d="M296.109,447.899c-2.63,0-5.199,1.07-7.069,2.931c-1.86,1.859-2.92,4.439-2.92,7.069    c0,2.631,1.06,5.21,2.92,7.07c1.87,1.87,4.439,2.93,7.069,2.93c2.641,0,5.21-1.06,7.08-2.93c1.86-1.86,2.931-4.439,2.931-7.07    c0-2.63-1.07-5.21-2.931-7.069C301.319,448.97,298.75,447.899,296.109,447.899z" fill="#ffffff" data-original="#000000" style="" class=""/>
		<path id="XMLID_1048_" d="M179.746,266.127H332c5.522,0,10-4.478,10-10c0-5.523-4.478-10-10-10H179.746c-5.522,0-10,4.477-10,10    C169.746,261.649,174.224,266.127,179.746,266.127z" fill="#ffffff" data-original="#000000" style="" class=""/>
	</g>
</g>















</g></svg>
