<?xml version="1.0" encoding="utf-8"?>
<!-- Generator: Adobe Illustrator 24.0.0, SVG Export Plug-In . SVG Version: 6.00 Build 0)  -->
<svg version="1.1" id="Layer_1" xmlns="http://www.w3.org/2000/svg" xmlns:xlink="http://www.w3.org/1999/xlink" x="0px" y="0px"
	 viewBox="0 0 291.1 261.7" style="enable-background:new 0 0 291.1 261.7;" xml:space="preserve" width="512px" height="512px">
<path d="M287.6,104.4l-35.2-15.6l35.2-15.6c2.1-0.9,3.5-3.1,3.5-5.4s-1.4-4.5-3.5-5.4L147.7,0.5c-1.5-0.7-3.3-0.7-4.8,0L3.1,62.4
	c-2.1,0.9-3.5,3.1-3.5,5.4s1.4,4.5,3.5,5.4l35.2,15.6L3.1,104.4c-2.1,0.9-3.5,3.1-3.5,5.4v42c0,2.3,1.4,4.5,3.5,5.4l35.2,15.6
	L3.1,188.5c-2.1,0.9-3.5,3.1-3.5,5.4s1.4,4.5,3.5,5.4l139.8,61.9c0.8,0.3,1.6,0.5,2.4,0.5s1.6-0.2,2.4-0.5l139.8-61.9
	c2.1-0.9,3.5-3.1,3.5-5.4s-1.4-4.5-3.5-5.4l-35.2-15.6l35.2-15.6c2.1-0.9,3.5-3.1,3.5-5.4v-42C291.1,107.5,289.7,105.4,287.6,104.4z
	 M20.1,67.8l125.2-55.4l125.2,55.4l-125.2,55.4L20.1,67.8z M52.9,95.3l90,39.8c0.8,0.3,1.6,0.5,2.4,0.5s1.6-0.2,2.4-0.5l90-39.8
	l32.8,14.5l-125.2,55.4L20.1,109.9L52.9,95.3z M232.6,139.6v29.1l-34.8,15.4V155L232.6,139.6z M186,160.2v29.1l-34.8,15.4v-29.1
	L186,160.2z M139.4,175.6v29.1l-34.8-15.4v-29.1L139.4,175.6z M92.8,155v29.1L58,168.7v-29.1L92.8,155z M11.4,148v-29.1l34.8,15.4
	v29.1L11.4,148z M270.6,193.9l-125.2,55.4L20.1,193.9l32.8-14.5l90,39.8c0.8,0.3,1.6,0.5,2.4,0.5s1.6-0.2,2.4-0.5l90-39.8
	L270.6,193.9z M279.3,148l-34.8,15.4v-29.1l34.8-15.4V148z" fill="#ffffff" />
</svg>
