<?xml version="1.0" encoding="utf-8"?>
<!-- Generator: Adobe Illustrator 24.0.2, SVG Export Plug-In . SVG Version: 6.00 Build 0)  -->
<svg version="1.1" id="Слой_1" xmlns:svgjs="http://svgjs.com/svgjs"
	 xmlns="http://www.w3.org/2000/svg" xmlns:xlink="http://www.w3.org/1999/xlink" x="0px" y="0px" viewBox="0 0 512 512"
	 style="enable-background:new 0 0 512 512;" xml:space="preserve">
<style type="text/css">
	.st0{fill:#FFFFFF;}
</style>
<g>
	<path class="st0" d="M503.5,58H8.5C3.8,58,0,61.8,0,66.5V442c0,4.7,3.8,8.5,8.5,8.5h494.9c4.7,0,8.5-3.8,8.5-8.5V66.5
		C512,61.8,508.2,58,503.5,58z M494.9,433.5H17.1V75.1h477.9V433.5z"/>
	<path class="st0" d="M34.1,424.9h443.7c4.7,0,8.5-3.8,8.5-8.5V92.1c0-4.7-3.8-8.5-8.5-8.5H34.1c-4.7,0-8.5,3.8-8.5,8.5v324.3
		C25.6,421.1,29.4,424.9,34.1,424.9z M42.7,100.7h426.7v307.2H42.7V100.7z"/>
	<path class="st0" d="M412.1,157.9c3.3,3.2,8.7,3.2,12-0.1c3.3-3.3,3.3-8.6,0.1-12L390,111.7c-3.4-3.2-8.7-3.2-12,0.1
		c-3.3,3.3-3.3,8.6-0.1,12L412.1,157.9z"/>
	<path class="st0" d="M441.2,162.9c-3.4-3.2-8.7-3.2-12,0.1c-3.3,3.3-3.3,8.6-0.1,12l17.1,17.1c3.3,3.2,8.7,3.2,12-0.1
		c3.3-3.3,3.3-8.6,0.1-12L441.2,162.9z"/>
	<path class="st0" d="M355.9,128.8c-3.4-3.2-8.7-3.2-12,0.1c-3.3,3.3-3.3,8.6-0.1,12l85.3,85.3c3.4,3.2,8.7,3.2,12-0.1
		c3.3-3.3,3.3-8.6,0.1-12L355.9,128.8z"/>
</g>
</svg>
