<?xml version="1.0"?>
<svg xmlns="http://www.w3.org/2000/svg" xmlns:xlink="http://www.w3.org/1999/xlink" xmlns:svgjs="http://svgjs.com/svgjs" version="1.1" width="512" height="512" x="0" y="0" viewBox="0 0 512 512" style="enable-background:new 0 0 512 512" xml:space="preserve" class=""><g>
<g xmlns="http://www.w3.org/2000/svg">
	<g>
		<path d="M256,0C114.844,0,0,114.844,0,256c0,5.896,4.771,10.667,10.667,10.667c5.896,0,10.667-4.771,10.667-10.667    c0-23.531,22.729-42.667,50.667-42.667s50.667,19.135,50.667,42.667c0,5.896,4.771,10.667,10.667,10.667    c5.896,0,10.667-4.771,10.667-10.667c0-23.531,22.729-42.667,50.667-42.667s50.667,19.135,50.667,42.667v197.333    c0,20.583-16.75,37.333-37.333,37.333s-37.333-16.75-37.333-37.333c0-7.49,2.198-14.698,6.365-20.854    c3.302-4.885,2.021-11.51-2.854-14.813c-4.906-3.323-11.521-2.01-14.813,2.854c-6.563,9.708-10.031,21.052-10.031,32.813    C149.333,485.688,175.646,512,208,512s58.667-26.313,58.667-58.667V256c0-23.531,22.729-42.667,50.667-42.667    C345.271,213.333,368,232.469,368,256c0,5.896,4.771,10.667,10.667,10.667s10.667-4.771,10.667-10.667    c0-23.531,22.729-42.667,50.667-42.667s50.667,19.135,50.667,42.667c0,5.896,4.771,10.667,10.667,10.667    c5.896,0,10.667-4.771,10.667-10.667C512,114.844,397.156,0,256,0z M440,192c-25.896,0-48.646,12.219-61.333,30.51    C365.979,204.219,343.229,192,317.333,192c-25.896,0-48.646,12.219-61.333,30.51C243.313,204.219,220.563,192,194.667,192    c-25.896,0-48.646,12.219-61.333,30.51C120.646,204.219,97.896,192,72,192c-17.188,0-32.99,5.385-45.385,14.344    C49.458,100.708,143.635,21.333,256,21.333s206.542,79.375,229.385,185.01C472.99,197.385,457.188,192,440,192z" fill="#ffffff" data-original="#000000" style=""/>
	</g>
</g>
<g xmlns="http://www.w3.org/2000/svg">
</g>
<g xmlns="http://www.w3.org/2000/svg">
</g>
<g xmlns="http://www.w3.org/2000/svg">
</g>
<g xmlns="http://www.w3.org/2000/svg">
</g>
<g xmlns="http://www.w3.org/2000/svg">
</g>
<g xmlns="http://www.w3.org/2000/svg">
</g>
<g xmlns="http://www.w3.org/2000/svg">
</g>
<g xmlns="http://www.w3.org/2000/svg">
</g>
<g xmlns="http://www.w3.org/2000/svg">
</g>
<g xmlns="http://www.w3.org/2000/svg">
</g>
<g xmlns="http://www.w3.org/2000/svg">
</g>
<g xmlns="http://www.w3.org/2000/svg">
</g>
<g xmlns="http://www.w3.org/2000/svg">
</g>
<g xmlns="http://www.w3.org/2000/svg">
</g>
<g xmlns="http://www.w3.org/2000/svg">
</g>
</g></svg>
